<svg width="1030" height="623" xmlns="http://www.w3.org/2000/svg" xmlns:xlink="http://www.w3.org/1999/xlink" overflow="hidden"><defs><clipPath id="clip0"><path d="M86 35 1116 35 1116 658 86 658Z" fill-rule="evenodd" clip-rule="evenodd"/></clipPath></defs><g clip-path="url(#clip0)" transform="translate(-86 -35)"><rect x="162.5" y="36.5001" width="953" height="620" stroke="#2F528F" stroke-width="1.33333" stroke-miterlimit="8" fill="#C00000"/><path d="M90 122.5C90 86.3253 119.325 57 155.5 57 191.675 57 221 86.3253 221 122.5 221 158.675 191.675 188 155.5 188 119.325 188 90 158.675 90 122.5Z" stroke="#000000" stroke-width="8" stroke-miterlimit="8" fill="none" fill-rule="evenodd"/><rect x="162" y="121" width="71" height="73" fill="#C00000"/><path d="M91 233.5C91 197.325 120.101 168 156 168 191.898 168 221 197.325 221 233.5 221 269.675 191.898 299 156 299 120.101 299 91 269.675 91 233.5Z" stroke="#000000" stroke-width="8" stroke-miterlimit="8" fill="none" fill-rule="evenodd"/><rect x="162" y="231" width="71" height="74" fill="#C00000"/><path d="M91 347C91 311.102 120.101 282 156 282 191.898 282 221 311.102 221 347 221 382.898 191.898 412 156 412 120.101 412 91 382.898 91 347Z" stroke="#000000" stroke-width="8" stroke-miterlimit="8" fill="none" fill-rule="evenodd"/><rect x="162" y="345" width="71" height="73" fill="#C00000"/><path d="M91 458.5C91 422.325 120.101 393 156 393 191.898 393 221 422.325 221 458.5 221 494.675 191.898 524 156 524 120.101 524 91 494.675 91 458.5Z" stroke="#000000" stroke-width="8" stroke-miterlimit="8" fill="none" fill-rule="evenodd"/><rect x="162" y="457" width="71" height="73" fill="#C00000"/><path d="M91 569C91 533.102 120.101 504 156 504 191.898 504 221 533.102 221 569 221 604.898 191.898 634 156 634 120.101 634 91 604.898 91 569Z" stroke="#000000" stroke-width="8" stroke-miterlimit="8" fill="none" fill-rule="evenodd"/><rect x="162" y="567" width="71" height="73" fill="#C00000"/></g></svg>