<svg width="545" height="213" xmlns="http://www.w3.org/2000/svg" xmlns:xlink="http://www.w3.org/1999/xlink" overflow="hidden"><defs><clipPath id="clip0"><path d="M249 149 794 149 794 362 249 362Z" fill-rule="evenodd" clip-rule="evenodd"/></clipPath></defs><g clip-path="url(#clip0)" transform="translate(-249 -149)"><path d="M251.5 186.334C251.5 167.096 267.096 151.5 286.334 151.5L757.666 151.5C776.904 151.5 792.5 167.096 792.5 186.334L792.5 325.666C792.5 344.904 776.904 360.5 757.666 360.5L286.334 360.5C267.096 360.5 251.5 344.904 251.5 325.666Z" stroke="#C00000" stroke-width="3" stroke-miterlimit="8" fill="#FFFFFF" fill-rule="evenodd"/><path d="M267.5 196.501C267.5 179.932 280.932 166.5 297.501 166.5L746.499 166.5C763.068 166.5 776.5 179.932 776.5 196.501L776.5 316.499C776.5 333.068 763.068 346.5 746.499 346.5L297.501 346.5C280.932 346.5 267.5 333.068 267.5 316.499Z" stroke="#C00000" stroke-width="3" stroke-miterlimit="8" stroke-dasharray="12 9" fill="none" fill-rule="evenodd"/></g></svg>